<svg id="Layer_1" data-name="Layer 1" xmlns="http://www.w3.org/2000/svg" viewBox="0 0 323.14 385.12"><defs><style>.cls-1{fill:#fff;}.cls-2{fill:#f05c69;}</style></defs><path class="cls-1" d="M96.85,293c0-46.41-.07-91.79-.06-137.17,0-9.08,1.77-10.86,10.49-10.84,27.87.05,55.73.16,85.37.25-5.48-4.33-9.83-7.55-14-11C159.71,118.05,153.81,96,162.5,74c7.53-19.09,29.16-32.27,51.83-31.71,18.12.45,33.67,6.79,46.48,20.08,6.1-3.75,11.87-8.08,18.26-11,19.38-9,39.14-8.45,57.34,2.3,32.38,19.14,32.23,63.72.39,86.83a14.86,14.86,0,0,0-5.08,5.14c11.62.11,23.23.29,34.84.32,14.87,0,29.73-.18,44.6,0,6.72.07,7.18,5.57,7.31,10.32.35,13,.26,26,.36,39,.24,32.32.5,64.64.77,98.41m-.54,34.35c.13,16.39.25,32.27.4,48.15.13,13.52.32,27,.47,40.56.07,6.9-3.44,10.26-10.29,10.28q-51.78.09-103.58.18l-122.69.12q-36.26,0-72.5.13c-9.53,0-12.46-2.77-12.56-12.13q-.47-41.82-.89-83.64a22.43,22.43,0,0,0-.44-2.75m114.65-35.36a62,62,0,0,0,.79-6.61c0-30.8.17-61.6-.07-92.41-.12-14.61-.45-14.6-15.58-14.73-1.06,0-2.13-.2-3.19-.19l-62.77.42c.27,37.94.54,75.17.81,113.64Zm91.45-.17L381,293c5,0,4.88-3.14,4.8-7.05-.38-18-.36-36.07-.58-54.1-.2-16.62-.52-33.23-.81-50.66l-81.58-.36C302.91,218.51,303,255.47,303.08,293.3Zm-.71,98.54,82.72-.64c-.12-21.5-.25-42.31-.38-63.51l-82.54,0C302.24,349.07,302.3,369.91,302.37,391.84Zm-91.05-63.63-79.67-.29c.16,22,.32,42.76.48,63.86,13.94.1,26.94.26,39.94.25s25.82-.21,39.67-.34C211.6,370.18,211.46,349.6,211.32,328.21ZM214.6,118c7.87-5.43,14.27-10.58,21.36-14.5,4.83-2.69,5.55-5.8,3.73-10.14A30,30,0,0,0,218.11,75c-8.24-2-19.78,4.15-23.41,11.76s-1,16.12,7,22.27C206,112.41,210.72,115.31,214.6,118Zm88.93,3.14c5.39-3.7,11.42-7.11,16.58-11.54,9.28-8,8.38-19.25-1.53-26.2C304.83,73.75,285.41,80,280.51,96c-.67,2.18.7,6.06,2.47,7.73C289.12,109.55,295.85,114.72,303.53,121.11Zm-72,29.77c12-19,23.81-22.31,47.29-13.75-6.93-13.65-20.15-18.64-33.78-12.76C233.71,129.25,227.58,140.63,231.51,150.88Z" transform="translate(-96.79 -42.22)"/><rect class="cls-2" x="152.21" y="266.8" width="212.31" height="37.77" transform="translate(447.25 -14.9) rotate(90)"/><rect class="cls-1" x="0.2" y="250.75" width="322.74" height="37.77"/><circle class="cls-2" cx="161.57" cy="102.25" r="26.5"/></svg>